<mxfile host="app.diagrams.net" agent="Mozilla/5.0 (Macintosh; Intel Mac OS X 10_15_7) AppleWebKit/537.36 (KHTML, like Gecko) Chrome/140.0.0.0 Safari/537.36" version="28.2.3">
  <diagram name="Page-1" id="X3rEYGYxmpHoWfrI04Dd">
    <mxGraphModel dx="1678" dy="2069" grid="1" gridSize="10" guides="1" tooltips="1" connect="1" arrows="1" fold="1" page="1" pageScale="1" pageWidth="850" pageHeight="1100" math="0" shadow="0">
      <root>
        <mxCell id="0" />
        <mxCell id="1" parent="0" />
        <mxCell id="gE25UW4fyhG3K7R1qF85-5" value="" style="endArrow=classic;html=1;rounded=0;" edge="1" parent="1">
          <mxGeometry width="50" height="50" relative="1" as="geometry">
            <mxPoint x="809.95" y="740" as="sourcePoint" />
            <mxPoint x="810" y="790" as="targetPoint" />
          </mxGeometry>
        </mxCell>
        <mxCell id="gE25UW4fyhG3K7R1qF85-22" value="&lt;b&gt;&lt;font style=&quot;font-size: 18px; color: rgb(255, 181, 112);&quot;&gt;&lt;font style=&quot;&quot;&gt;[item n+1&lt;/font&gt;]&lt;/font&gt;&lt;/b&gt;" style="text;whiteSpace=wrap;html=1;" vertex="1" parent="1">
          <mxGeometry x="760" y="800" width="130" height="40" as="geometry" />
        </mxCell>
        <mxCell id="gE25UW4fyhG3K7R1qF85-23" value="" style="endArrow=none;html=1;rounded=0;strokeWidth=3;dashed=1;" edge="1" parent="1">
          <mxGeometry width="50" height="50" relative="1" as="geometry">
            <mxPoint x="590" y="840" as="sourcePoint" />
            <mxPoint x="589.71" y="700" as="targetPoint" />
          </mxGeometry>
        </mxCell>
        <mxCell id="gE25UW4fyhG3K7R1qF85-24" value="&lt;b&gt;&lt;font face=&quot;Comic Sans MS&quot; style=&quot;font-size: 22px;&quot;&gt;Train&lt;/font&gt;&lt;/b&gt;" style="text;html=1;align=center;verticalAlign=middle;whiteSpace=wrap;rounded=0;" vertex="1" parent="1">
          <mxGeometry x="290" y="710" width="100" height="30" as="geometry" />
        </mxCell>
        <mxCell id="gE25UW4fyhG3K7R1qF85-25" value="&lt;b&gt;&lt;font face=&quot;Comic Sans MS&quot; style=&quot;font-size: 22px;&quot;&gt;Test&lt;/font&gt;&lt;/b&gt;" style="text;html=1;align=center;verticalAlign=middle;whiteSpace=wrap;rounded=0;" vertex="1" parent="1">
          <mxGeometry x="760" y="710" width="100" height="30" as="geometry" />
        </mxCell>
        <mxCell id="gE25UW4fyhG3K7R1qF85-27" value="&lt;font face=&quot;Comic Sans MS&quot; style=&quot;color: rgb(126, 166, 224);&quot;&gt;&lt;span style=&quot;font-size: 18px;&quot;&gt;&lt;b style=&quot;&quot;&gt;Constrained Beam Search&lt;/b&gt;&lt;/span&gt;&lt;/font&gt;" style="text;whiteSpace=wrap;html=1;" vertex="1" parent="1">
          <mxGeometry x="840" y="740" width="150" height="40" as="geometry" />
        </mxCell>
        <mxCell id="gE25UW4fyhG3K7R1qF85-28" value="" style="endArrow=classic;html=1;rounded=0;" edge="1" parent="1">
          <mxGeometry width="50" height="50" relative="1" as="geometry">
            <mxPoint x="339.71" y="740" as="sourcePoint" />
            <mxPoint x="340" y="790" as="targetPoint" />
          </mxGeometry>
        </mxCell>
        <mxCell id="gE25UW4fyhG3K7R1qF85-29" value="&lt;font face=&quot;Comic Sans MS&quot; color=&quot;#ffb570&quot;&gt;&lt;span style=&quot;font-size: 18px;&quot;&gt;&lt;b&gt;Cross Entropy Loss&lt;/b&gt;&lt;/span&gt;&lt;/font&gt;" style="text;whiteSpace=wrap;html=1;" vertex="1" parent="1">
          <mxGeometry x="260" y="800" width="190" height="40" as="geometry" />
        </mxCell>
        <mxCell id="gE25UW4fyhG3K7R1qF85-30" value="" style="group" vertex="1" connectable="0" parent="1">
          <mxGeometry x="100" y="540" width="980" height="160" as="geometry" />
        </mxCell>
        <mxCell id="gE25UW4fyhG3K7R1qF85-7" value="" style="group" vertex="1" connectable="0" parent="gE25UW4fyhG3K7R1qF85-30">
          <mxGeometry y="90" width="980" height="70" as="geometry" />
        </mxCell>
        <mxCell id="gE25UW4fyhG3K7R1qF85-1" value="" style="rounded=1;whiteSpace=wrap;html=1;fillColor=#dae8fc;strokeColor=none;" vertex="1" parent="gE25UW4fyhG3K7R1qF85-7">
          <mxGeometry width="980" height="70" as="geometry" />
        </mxCell>
        <mxCell id="gE25UW4fyhG3K7R1qF85-2" value="&lt;b&gt;&lt;font style=&quot;color: rgb(204, 0, 0); font-size: 20px;&quot;&gt;LoRA&lt;/font&gt;&lt;/b&gt;" style="rounded=1;whiteSpace=wrap;html=1;fillColor=#f8cecc;strokeColor=none;" vertex="1" parent="gE25UW4fyhG3K7R1qF85-7">
          <mxGeometry x="440" y="40" width="100" height="20" as="geometry" />
        </mxCell>
        <mxCell id="gE25UW4fyhG3K7R1qF85-26" value="&lt;b&gt;&lt;font style=&quot;color: rgb(0, 0, 102); font-size: 24px;&quot;&gt;LLM&amp;nbsp;&lt;/font&gt;&lt;/b&gt;" style="text;html=1;align=center;verticalAlign=middle;whiteSpace=wrap;rounded=0;" vertex="1" parent="gE25UW4fyhG3K7R1qF85-7">
          <mxGeometry x="460" y="10" width="60" height="30" as="geometry" />
        </mxCell>
        <mxCell id="gE25UW4fyhG3K7R1qF85-10" value="" style="group" vertex="1" connectable="0" parent="gE25UW4fyhG3K7R1qF85-30">
          <mxGeometry width="980" height="50" as="geometry" />
        </mxCell>
        <mxCell id="gE25UW4fyhG3K7R1qF85-4" value="&lt;p style=&quot;line-height: 110%;&quot;&gt;&lt;br&gt;&lt;/p&gt;" style="rounded=1;whiteSpace=wrap;html=1;fillColor=#e1d5e7;strokeColor=#9673a6;align=left;arcSize=8;strokeWidth=5;fillStyle=auto;glass=0;shadow=1;opacity=40;" vertex="1" parent="gE25UW4fyhG3K7R1qF85-10">
          <mxGeometry width="980" height="50" as="geometry" />
        </mxCell>
        <mxCell id="gE25UW4fyhG3K7R1qF85-6" value="&lt;font style=&quot;font-size: 20px;&quot;&gt;This user&#39;s shopping history is [item 1], [item 2], ..., [item n]. Please predict the next item the user will buy.&lt;/font&gt;" style="text;html=1;align=center;verticalAlign=middle;whiteSpace=wrap;rounded=0;" vertex="1" parent="gE25UW4fyhG3K7R1qF85-10">
          <mxGeometry x="20" y="10" width="940" height="30" as="geometry" />
        </mxCell>
        <mxCell id="gE25UW4fyhG3K7R1qF85-20" value="" style="shape=flexArrow;endArrow=classic;html=1;rounded=0;fillColor=#d0cee2;strokeColor=none;endWidth=32.57142857142857;endSize=4.2057142857142855;" edge="1" parent="gE25UW4fyhG3K7R1qF85-30">
          <mxGeometry width="50" height="50" relative="1" as="geometry">
            <mxPoint x="490" y="60" as="sourcePoint" />
            <mxPoint x="489.71000000000004" y="90" as="targetPoint" />
          </mxGeometry>
        </mxCell>
        <mxCell id="gE25UW4fyhG3K7R1qF85-31" value="" style="group" vertex="1" connectable="0" parent="1">
          <mxGeometry x="790" y="170" width="980" height="160" as="geometry" />
        </mxCell>
        <mxCell id="gE25UW4fyhG3K7R1qF85-32" value="" style="group" vertex="1" connectable="0" parent="gE25UW4fyhG3K7R1qF85-31">
          <mxGeometry y="90" width="980" height="70" as="geometry" />
        </mxCell>
        <mxCell id="gE25UW4fyhG3K7R1qF85-33" value="" style="rounded=1;whiteSpace=wrap;html=1;fillColor=#dae8fc;strokeColor=none;" vertex="1" parent="gE25UW4fyhG3K7R1qF85-32">
          <mxGeometry width="980" height="70" as="geometry" />
        </mxCell>
        <mxCell id="gE25UW4fyhG3K7R1qF85-34" value="&lt;b&gt;&lt;font style=&quot;color: rgb(204, 0, 0); font-size: 20px;&quot;&gt;LoRA&lt;/font&gt;&lt;/b&gt;" style="rounded=1;whiteSpace=wrap;html=1;fillColor=#f8cecc;strokeColor=none;" vertex="1" parent="gE25UW4fyhG3K7R1qF85-32">
          <mxGeometry x="440" y="40" width="100" height="20" as="geometry" />
        </mxCell>
        <mxCell id="gE25UW4fyhG3K7R1qF85-35" value="&lt;b&gt;&lt;font style=&quot;color: rgb(0, 0, 102); font-size: 24px;&quot;&gt;LLM&amp;nbsp;&lt;/font&gt;&lt;/b&gt;" style="text;html=1;align=center;verticalAlign=middle;whiteSpace=wrap;rounded=0;" vertex="1" parent="gE25UW4fyhG3K7R1qF85-32">
          <mxGeometry x="460" y="10" width="60" height="30" as="geometry" />
        </mxCell>
        <mxCell id="gE25UW4fyhG3K7R1qF85-36" value="" style="group" vertex="1" connectable="0" parent="gE25UW4fyhG3K7R1qF85-31">
          <mxGeometry width="980" height="60" as="geometry" />
        </mxCell>
        <mxCell id="gE25UW4fyhG3K7R1qF85-37" value="&lt;p style=&quot;line-height: 110%;&quot;&gt;&lt;br&gt;&lt;/p&gt;" style="rounded=1;whiteSpace=wrap;html=1;fillColor=#e1d5e7;strokeColor=#9673a6;align=left;arcSize=8;strokeWidth=5;fillStyle=auto;glass=0;shadow=1;opacity=40;" vertex="1" parent="gE25UW4fyhG3K7R1qF85-36">
          <mxGeometry width="980" height="50" as="geometry" />
        </mxCell>
        <mxCell id="gE25UW4fyhG3K7R1qF85-38" value="&lt;font style=&quot;font-size: 20px;&quot;&gt;This user&#39;s shopping history is&amp;nbsp; [item 1] , [item 2], ..., [item n]. Please predict the next item the user will buy.&lt;/font&gt;" style="text;html=1;align=center;verticalAlign=middle;whiteSpace=wrap;rounded=0;" vertex="1" parent="gE25UW4fyhG3K7R1qF85-36">
          <mxGeometry x="5" y="10" width="960" height="30" as="geometry" />
        </mxCell>
        <mxCell id="gE25UW4fyhG3K7R1qF85-40" value="" style="rounded=1;whiteSpace=wrap;html=1;fillColor=none;strokeColor=#009900;strokeWidth=3;" vertex="1" parent="gE25UW4fyhG3K7R1qF85-36">
          <mxGeometry x="290" y="10" width="70" height="30" as="geometry" />
        </mxCell>
        <mxCell id="gE25UW4fyhG3K7R1qF85-39" value="" style="shape=flexArrow;endArrow=classic;html=1;rounded=0;fillColor=#d0cee2;strokeColor=none;endWidth=32.57142857142857;endSize=4.2057142857142855;" edge="1" parent="gE25UW4fyhG3K7R1qF85-31">
          <mxGeometry width="50" height="50" relative="1" as="geometry">
            <mxPoint x="490" y="60" as="sourcePoint" />
            <mxPoint x="489.71000000000004" y="90" as="targetPoint" />
          </mxGeometry>
        </mxCell>
        <mxCell id="gE25UW4fyhG3K7R1qF85-41" value="" style="endArrow=none;html=1;rounded=0;strokeColor=#009900;strokeWidth=2;entryX=0.925;entryY=1.004;entryDx=0;entryDy=0;entryPerimeter=0;exitX=1;exitY=0.25;exitDx=0;exitDy=0;" edge="1" parent="1" source="gE25UW4fyhG3K7R1qF85-40" target="gE25UW4fyhG3K7R1qF85-46">
          <mxGeometry width="50" height="50" relative="1" as="geometry">
            <mxPoint x="1150" y="180" as="sourcePoint" />
            <mxPoint x="1450" y="130" as="targetPoint" />
          </mxGeometry>
        </mxCell>
        <mxCell id="gE25UW4fyhG3K7R1qF85-46" value="" style="rounded=1;whiteSpace=wrap;html=1;fillColor=#b0e3e6;strokeColor=light-dark(#009900, #ededed);strokeWidth=3;opacity=40;" vertex="1" parent="1">
          <mxGeometry x="880" y="-100" width="590" height="240" as="geometry" />
        </mxCell>
        <mxCell id="gE25UW4fyhG3K7R1qF85-47" value="" style="endArrow=none;html=1;rounded=0;strokeColor=#009900;strokeWidth=2;exitX=0;exitY=0.25;exitDx=0;exitDy=0;" edge="1" parent="1" source="gE25UW4fyhG3K7R1qF85-40">
          <mxGeometry width="50" height="50" relative="1" as="geometry">
            <mxPoint x="1080" y="180" as="sourcePoint" />
            <mxPoint x="910" y="140" as="targetPoint" />
          </mxGeometry>
        </mxCell>
        <mxCell id="gE25UW4fyhG3K7R1qF85-48" value="&lt;font style=&quot;color: rgb(0, 153, 153); font-size: 18px;&quot;&gt;&lt;b style=&quot;&quot;&gt;LLM Tokenizer&lt;/b&gt;&lt;/font&gt;" style="rounded=1;whiteSpace=wrap;html=1;fillColor=#b1ddf0;strokeColor=none;" vertex="1" parent="1">
          <mxGeometry x="940" y="30" width="210" height="40" as="geometry" />
        </mxCell>
        <mxCell id="gE25UW4fyhG3K7R1qF85-49" value="&lt;font style=&quot;font-size: 14px; color: rgb(153, 153, 153);&quot;&gt;&lt;b&gt;No. 512 ardell duo brow brush&lt;/b&gt;&lt;/font&gt;" style="text;html=1;align=center;verticalAlign=middle;whiteSpace=wrap;rounded=0;" vertex="1" parent="1">
          <mxGeometry x="940" width="210" height="30" as="geometry" />
        </mxCell>
        <mxCell id="gE25UW4fyhG3K7R1qF85-53" value="&lt;b&gt;&lt;font style=&quot;color: rgb(0, 153, 0); font-size: 18px;&quot;&gt;SASRec&lt;/font&gt;&lt;/b&gt;" style="rounded=1;whiteSpace=wrap;html=1;fillColor=#cdeb8b;strokeColor=none;" vertex="1" parent="1">
          <mxGeometry x="1130" y="-90" width="105" height="40" as="geometry" />
        </mxCell>
        <mxCell id="gE25UW4fyhG3K7R1qF85-54" value="" style="endArrow=classic;html=1;rounded=0;entryX=0;entryY=0.5;entryDx=0;entryDy=0;" edge="1" parent="1" target="gE25UW4fyhG3K7R1qF85-53">
          <mxGeometry width="50" height="50" relative="1" as="geometry">
            <mxPoint x="1040" as="sourcePoint" />
            <mxPoint x="1090" y="-50" as="targetPoint" />
            <Array as="points">
              <mxPoint x="1040" y="-70" />
            </Array>
          </mxGeometry>
        </mxCell>
        <mxCell id="gE25UW4fyhG3K7R1qF85-55" value="&lt;font style=&quot;color: rgb(0, 153, 0); font-size: 18px;&quot;&gt;&lt;b style=&quot;&quot;&gt;CF Emb&lt;/b&gt;&lt;/font&gt;" style="rounded=0;whiteSpace=wrap;html=1;fillColor=#66FFB3;strokeColor=none;" vertex="1" parent="1">
          <mxGeometry x="1290" y="-30" width="140" height="30" as="geometry" />
        </mxCell>
        <mxCell id="gE25UW4fyhG3K7R1qF85-57" value="" style="endArrow=classic;html=1;rounded=0;entryX=0.5;entryY=0;entryDx=0;entryDy=0;" edge="1" parent="1" target="gE25UW4fyhG3K7R1qF85-55">
          <mxGeometry width="50" height="50" relative="1" as="geometry">
            <mxPoint x="1235" y="-70" as="sourcePoint" />
            <mxPoint x="1285" y="-120" as="targetPoint" />
            <Array as="points">
              <mxPoint x="1360" y="-70" />
            </Array>
          </mxGeometry>
        </mxCell>
        <mxCell id="gE25UW4fyhG3K7R1qF85-59" value="&lt;font style=&quot;color: rgb(153, 76, 0); font-size: 18px;&quot;&gt;&lt;b style=&quot;&quot;&gt;MLP Adapter&lt;/b&gt;&lt;/font&gt;" style="rounded=1;whiteSpace=wrap;html=1;fillColor=#FFCC99;strokeColor=none;" vertex="1" parent="1">
          <mxGeometry x="1290" y="30" width="140" height="40" as="geometry" />
        </mxCell>
        <mxCell id="gE25UW4fyhG3K7R1qF85-60" value="" style="endArrow=classic;html=1;rounded=0;entryX=0.5;entryY=0;entryDx=0;entryDy=0;" edge="1" parent="1" target="gE25UW4fyhG3K7R1qF85-59">
          <mxGeometry width="50" height="50" relative="1" as="geometry">
            <mxPoint x="1360" as="sourcePoint" />
            <mxPoint x="1410" y="-50" as="targetPoint" />
          </mxGeometry>
        </mxCell>
        <mxCell id="gE25UW4fyhG3K7R1qF85-61" value="" style="rounded=0;whiteSpace=wrap;html=1;fillColor=#dae8fc;gradientColor=#7ea6e0;strokeColor=#6c8ebf;glass=0;" vertex="1" parent="1">
          <mxGeometry x="995" y="100" width="100" height="20" as="geometry" />
        </mxCell>
        <mxCell id="gE25UW4fyhG3K7R1qF85-62" value="" style="rounded=0;whiteSpace=wrap;html=1;fillColor=#d5e8d4;gradientColor=#97d077;strokeColor=#82b366;glass=0;" vertex="1" parent="1">
          <mxGeometry x="1310" y="100" width="100" height="20" as="geometry" />
        </mxCell>
        <mxCell id="gE25UW4fyhG3K7R1qF85-63" value="" style="endArrow=classic;html=1;rounded=0;entryX=0.5;entryY=0;entryDx=0;entryDy=0;" edge="1" parent="1">
          <mxGeometry width="50" height="50" relative="1" as="geometry">
            <mxPoint x="1040" y="70" as="sourcePoint" />
            <mxPoint x="1040" y="100" as="targetPoint" />
          </mxGeometry>
        </mxCell>
        <mxCell id="gE25UW4fyhG3K7R1qF85-64" value="" style="endArrow=classic;html=1;rounded=0;entryX=0.5;entryY=0;entryDx=0;entryDy=0;" edge="1" parent="1">
          <mxGeometry width="50" height="50" relative="1" as="geometry">
            <mxPoint x="1359.71" y="70" as="sourcePoint" />
            <mxPoint x="1359.71" y="100" as="targetPoint" />
          </mxGeometry>
        </mxCell>
        <mxCell id="gE25UW4fyhG3K7R1qF85-65" value="" style="shape=link;html=1;rounded=0;" edge="1" parent="1">
          <mxGeometry width="100" relative="1" as="geometry">
            <mxPoint x="1095" y="109.71" as="sourcePoint" />
            <mxPoint x="1145" y="109.71" as="targetPoint" />
          </mxGeometry>
        </mxCell>
        <mxCell id="gE25UW4fyhG3K7R1qF85-66" value="&lt;b&gt;&lt;font style=&quot;color: rgb(255, 102, 102); font-size: 17px;&quot;&gt;Concatenate&lt;/font&gt;&lt;/b&gt;" style="text;html=1;align=center;verticalAlign=middle;whiteSpace=wrap;rounded=0;" vertex="1" parent="1">
          <mxGeometry x="1170" y="90" width="60" height="30" as="geometry" />
        </mxCell>
        <mxCell id="gE25UW4fyhG3K7R1qF85-71" value="" style="shape=link;html=1;rounded=0;entryX=0;entryY=0.5;entryDx=0;entryDy=0;" edge="1" parent="1" target="gE25UW4fyhG3K7R1qF85-62">
          <mxGeometry width="100" relative="1" as="geometry">
            <mxPoint x="1253" y="109.71000000000001" as="sourcePoint" />
            <mxPoint x="1298" y="110" as="targetPoint" />
          </mxGeometry>
        </mxCell>
        <mxCell id="gE25UW4fyhG3K7R1qF85-72" value="" style="group" vertex="1" connectable="0" parent="1">
          <mxGeometry x="1770" y="940" width="980" height="160" as="geometry" />
        </mxCell>
        <mxCell id="gE25UW4fyhG3K7R1qF85-73" value="" style="group" vertex="1" connectable="0" parent="gE25UW4fyhG3K7R1qF85-72">
          <mxGeometry y="90" width="980" height="70" as="geometry" />
        </mxCell>
        <mxCell id="gE25UW4fyhG3K7R1qF85-74" value="" style="rounded=1;whiteSpace=wrap;html=1;fillColor=#dae8fc;strokeColor=none;" vertex="1" parent="gE25UW4fyhG3K7R1qF85-73">
          <mxGeometry width="980" height="70" as="geometry" />
        </mxCell>
        <mxCell id="gE25UW4fyhG3K7R1qF85-75" value="&lt;b&gt;&lt;font style=&quot;color: rgb(204, 0, 0); font-size: 20px;&quot;&gt;LoRA&lt;/font&gt;&lt;/b&gt;" style="rounded=1;whiteSpace=wrap;html=1;fillColor=#f8cecc;strokeColor=none;" vertex="1" parent="gE25UW4fyhG3K7R1qF85-73">
          <mxGeometry x="440" y="40" width="100" height="20" as="geometry" />
        </mxCell>
        <mxCell id="gE25UW4fyhG3K7R1qF85-76" value="&lt;b&gt;&lt;font style=&quot;color: rgb(0, 0, 102); font-size: 24px;&quot;&gt;LLM&amp;nbsp;&lt;/font&gt;&lt;/b&gt;" style="text;html=1;align=center;verticalAlign=middle;whiteSpace=wrap;rounded=0;" vertex="1" parent="gE25UW4fyhG3K7R1qF85-73">
          <mxGeometry x="460" y="10" width="60" height="30" as="geometry" />
        </mxCell>
        <mxCell id="gE25UW4fyhG3K7R1qF85-77" value="" style="group" vertex="1" connectable="0" parent="gE25UW4fyhG3K7R1qF85-72">
          <mxGeometry width="980" height="60" as="geometry" />
        </mxCell>
        <mxCell id="gE25UW4fyhG3K7R1qF85-78" value="&lt;p style=&quot;line-height: 110%;&quot;&gt;&lt;br&gt;&lt;/p&gt;" style="rounded=1;whiteSpace=wrap;html=1;fillColor=#e1d5e7;strokeColor=#9673a6;align=left;arcSize=8;strokeWidth=5;fillStyle=auto;glass=0;shadow=1;opacity=40;" vertex="1" parent="gE25UW4fyhG3K7R1qF85-77">
          <mxGeometry width="980" height="50" as="geometry" />
        </mxCell>
        <mxCell id="gE25UW4fyhG3K7R1qF85-79" value="&lt;font style=&quot;font-size: 20px;&quot;&gt;This user&#39;s shopping history is&amp;nbsp; [item 1] , [item 2], ..., [item n]. Please predict the next item the user will buy.&lt;/font&gt;" style="text;html=1;align=center;verticalAlign=middle;whiteSpace=wrap;rounded=0;" vertex="1" parent="gE25UW4fyhG3K7R1qF85-77">
          <mxGeometry x="5" y="10" width="960" height="30" as="geometry" />
        </mxCell>
        <mxCell id="gE25UW4fyhG3K7R1qF85-80" value="" style="rounded=1;whiteSpace=wrap;html=1;fillColor=none;strokeColor=#009900;strokeWidth=3;" vertex="1" parent="gE25UW4fyhG3K7R1qF85-77">
          <mxGeometry x="290" y="10" width="70" height="30" as="geometry" />
        </mxCell>
        <mxCell id="gE25UW4fyhG3K7R1qF85-81" value="" style="shape=flexArrow;endArrow=classic;html=1;rounded=0;fillColor=#d0cee2;strokeColor=none;endWidth=32.57142857142857;endSize=4.2057142857142855;" edge="1" parent="gE25UW4fyhG3K7R1qF85-72">
          <mxGeometry width="50" height="50" relative="1" as="geometry">
            <mxPoint x="490" y="60" as="sourcePoint" />
            <mxPoint x="489.71000000000004" y="90" as="targetPoint" />
          </mxGeometry>
        </mxCell>
        <mxCell id="gE25UW4fyhG3K7R1qF85-82" value="" style="endArrow=none;html=1;rounded=0;strokeColor=#009900;strokeWidth=2;entryX=0.925;entryY=1.004;entryDx=0;entryDy=0;entryPerimeter=0;exitX=1;exitY=0.25;exitDx=0;exitDy=0;" edge="1" parent="1" source="gE25UW4fyhG3K7R1qF85-80" target="gE25UW4fyhG3K7R1qF85-83">
          <mxGeometry width="50" height="50" relative="1" as="geometry">
            <mxPoint x="2130" y="950" as="sourcePoint" />
            <mxPoint x="2430" y="900" as="targetPoint" />
          </mxGeometry>
        </mxCell>
        <mxCell id="gE25UW4fyhG3K7R1qF85-83" value="" style="rounded=1;whiteSpace=wrap;html=1;fillColor=#b0e3e6;strokeColor=light-dark(#009900, #ededed);strokeWidth=3;opacity=40;" vertex="1" parent="1">
          <mxGeometry x="1860" y="670" width="590" height="240" as="geometry" />
        </mxCell>
        <mxCell id="gE25UW4fyhG3K7R1qF85-84" value="" style="endArrow=none;html=1;rounded=0;strokeColor=#009900;strokeWidth=2;exitX=0;exitY=0.25;exitDx=0;exitDy=0;" edge="1" parent="1" source="gE25UW4fyhG3K7R1qF85-80">
          <mxGeometry width="50" height="50" relative="1" as="geometry">
            <mxPoint x="2060" y="950" as="sourcePoint" />
            <mxPoint x="1890" y="910" as="targetPoint" />
          </mxGeometry>
        </mxCell>
        <mxCell id="gE25UW4fyhG3K7R1qF85-85" value="&lt;font style=&quot;color: rgb(0, 153, 153); font-size: 18px;&quot;&gt;&lt;b style=&quot;&quot;&gt;LLM Tokenizer&lt;/b&gt;&lt;/font&gt;" style="rounded=1;whiteSpace=wrap;html=1;fillColor=#b1ddf0;strokeColor=none;" vertex="1" parent="1">
          <mxGeometry x="1920" y="800" width="210" height="40" as="geometry" />
        </mxCell>
        <mxCell id="gE25UW4fyhG3K7R1qF85-86" value="&lt;font style=&quot;font-size: 14px; color: rgb(153, 153, 153);&quot;&gt;&lt;b&gt;No. 512 ardell duo brow brush&lt;/b&gt;&lt;/font&gt;" style="text;html=1;align=center;verticalAlign=middle;whiteSpace=wrap;rounded=0;" vertex="1" parent="1">
          <mxGeometry x="1920" y="770" width="210" height="30" as="geometry" />
        </mxCell>
        <mxCell id="gE25UW4fyhG3K7R1qF85-87" value="&lt;b&gt;&lt;font style=&quot;color: rgb(0, 153, 0); font-size: 18px;&quot;&gt;SASRec&lt;/font&gt;&lt;/b&gt;" style="rounded=1;whiteSpace=wrap;html=1;fillColor=#cdeb8b;strokeColor=none;" vertex="1" parent="1">
          <mxGeometry x="2110" y="680" width="105" height="40" as="geometry" />
        </mxCell>
        <mxCell id="gE25UW4fyhG3K7R1qF85-88" value="" style="endArrow=classic;html=1;rounded=0;entryX=0;entryY=0.5;entryDx=0;entryDy=0;" edge="1" parent="1" target="gE25UW4fyhG3K7R1qF85-87">
          <mxGeometry width="50" height="50" relative="1" as="geometry">
            <mxPoint x="2020" y="770" as="sourcePoint" />
            <mxPoint x="2070" y="720" as="targetPoint" />
            <Array as="points">
              <mxPoint x="2020" y="700" />
            </Array>
          </mxGeometry>
        </mxCell>
        <mxCell id="gE25UW4fyhG3K7R1qF85-89" value="&lt;font style=&quot;color: rgb(0, 153, 0); font-size: 18px;&quot;&gt;&lt;b style=&quot;&quot;&gt;CF Emb&lt;/b&gt;&lt;/font&gt;" style="rounded=0;whiteSpace=wrap;html=1;fillColor=#66FFB3;strokeColor=none;" vertex="1" parent="1">
          <mxGeometry x="2270" y="740" width="140" height="30" as="geometry" />
        </mxCell>
        <mxCell id="gE25UW4fyhG3K7R1qF85-90" value="" style="endArrow=classic;html=1;rounded=0;entryX=0.5;entryY=0;entryDx=0;entryDy=0;" edge="1" parent="1" target="gE25UW4fyhG3K7R1qF85-89">
          <mxGeometry width="50" height="50" relative="1" as="geometry">
            <mxPoint x="2215" y="700" as="sourcePoint" />
            <mxPoint x="2265" y="650" as="targetPoint" />
            <Array as="points">
              <mxPoint x="2340" y="700" />
            </Array>
          </mxGeometry>
        </mxCell>
        <mxCell id="gE25UW4fyhG3K7R1qF85-91" value="&lt;font style=&quot;color: rgb(153, 76, 0); font-size: 18px;&quot;&gt;&lt;b style=&quot;&quot;&gt;MLP Adapter&lt;/b&gt;&lt;/font&gt;" style="rounded=1;whiteSpace=wrap;html=1;fillColor=#FFCC99;strokeColor=none;" vertex="1" parent="1">
          <mxGeometry x="2270" y="800" width="140" height="40" as="geometry" />
        </mxCell>
        <mxCell id="gE25UW4fyhG3K7R1qF85-92" value="" style="endArrow=classic;html=1;rounded=0;entryX=0.5;entryY=0;entryDx=0;entryDy=0;" edge="1" parent="1" target="gE25UW4fyhG3K7R1qF85-91">
          <mxGeometry width="50" height="50" relative="1" as="geometry">
            <mxPoint x="2340" y="770" as="sourcePoint" />
            <mxPoint x="2390" y="720" as="targetPoint" />
          </mxGeometry>
        </mxCell>
        <mxCell id="gE25UW4fyhG3K7R1qF85-93" value="" style="rounded=0;whiteSpace=wrap;html=1;fillColor=#dae8fc;gradientColor=#7ea6e0;strokeColor=#6c8ebf;glass=0;" vertex="1" parent="1">
          <mxGeometry x="1975" y="870" width="100" height="20" as="geometry" />
        </mxCell>
        <mxCell id="gE25UW4fyhG3K7R1qF85-94" value="" style="rounded=0;whiteSpace=wrap;html=1;fillColor=#d5e8d4;gradientColor=#97d077;strokeColor=#82b366;glass=0;" vertex="1" parent="1">
          <mxGeometry x="2290" y="870" width="100" height="20" as="geometry" />
        </mxCell>
        <mxCell id="gE25UW4fyhG3K7R1qF85-95" value="" style="endArrow=classic;html=1;rounded=0;entryX=0.5;entryY=0;entryDx=0;entryDy=0;" edge="1" parent="1">
          <mxGeometry width="50" height="50" relative="1" as="geometry">
            <mxPoint x="2020" y="840" as="sourcePoint" />
            <mxPoint x="2020" y="870" as="targetPoint" />
          </mxGeometry>
        </mxCell>
        <mxCell id="gE25UW4fyhG3K7R1qF85-96" value="" style="endArrow=classic;html=1;rounded=0;entryX=0.5;entryY=0;entryDx=0;entryDy=0;" edge="1" parent="1">
          <mxGeometry width="50" height="50" relative="1" as="geometry">
            <mxPoint x="2339.71" y="840" as="sourcePoint" />
            <mxPoint x="2339.71" y="870" as="targetPoint" />
          </mxGeometry>
        </mxCell>
        <mxCell id="gE25UW4fyhG3K7R1qF85-97" value="" style="shape=link;html=1;rounded=0;entryX=0;entryY=0.5;entryDx=0;entryDy=0;" edge="1" parent="1" target="gE25UW4fyhG3K7R1qF85-98">
          <mxGeometry width="100" relative="1" as="geometry">
            <mxPoint x="2075" y="879.71" as="sourcePoint" />
            <mxPoint x="2125" y="879.71" as="targetPoint" />
          </mxGeometry>
        </mxCell>
        <mxCell id="gE25UW4fyhG3K7R1qF85-98" value="&lt;b&gt;&lt;font style=&quot;color: rgb(255, 102, 102); font-size: 19px;&quot;&gt;Add&lt;/font&gt;&lt;/b&gt;" style="text;html=1;align=center;verticalAlign=middle;whiteSpace=wrap;rounded=0;" vertex="1" parent="1">
          <mxGeometry x="2150" y="865" width="60" height="30" as="geometry" />
        </mxCell>
        <mxCell id="gE25UW4fyhG3K7R1qF85-99" value="" style="shape=link;html=1;rounded=0;entryX=0;entryY=0.5;entryDx=0;entryDy=0;exitX=1;exitY=0.5;exitDx=0;exitDy=0;" edge="1" parent="1" target="gE25UW4fyhG3K7R1qF85-94" source="gE25UW4fyhG3K7R1qF85-98">
          <mxGeometry width="100" relative="1" as="geometry">
            <mxPoint x="2233" y="879.71" as="sourcePoint" />
            <mxPoint x="2278" y="880" as="targetPoint" />
          </mxGeometry>
        </mxCell>
        <mxCell id="gE25UW4fyhG3K7R1qF85-101" value="&lt;font style=&quot;font-size: 17px;&quot;&gt;&lt;b&gt;&lt;font style=&quot;&quot;&gt;Bidirectional Transformer Encode&lt;/font&gt;r&lt;/b&gt;&lt;/font&gt;" style="rounded=1;whiteSpace=wrap;html=1;fillColor=#ffe6cc;strokeColor=#d79b00;" vertex="1" parent="1">
          <mxGeometry x="2600" y="-420" width="320" height="50" as="geometry" />
        </mxCell>
        <mxCell id="gE25UW4fyhG3K7R1qF85-102" value="" style="shape=flexArrow;endArrow=classic;html=1;rounded=0;strokeColor=light-dark(#050505, #232e40);fillColor=#D4E1F5;" edge="1" parent="1">
          <mxGeometry width="50" height="50" relative="1" as="geometry">
            <mxPoint x="2925" y="-395.42" as="sourcePoint" />
            <mxPoint x="2975" y="-395.42" as="targetPoint" />
          </mxGeometry>
        </mxCell>
        <mxCell id="gE25UW4fyhG3K7R1qF85-103" value="&lt;font style=&quot;font-size: 17px;&quot;&gt;&lt;b&gt;&lt;font style=&quot;&quot;&gt;Transformer Decode&lt;/font&gt;r&lt;/b&gt;&lt;/font&gt;" style="rounded=1;whiteSpace=wrap;html=1;fillColor=#ffe6cc;strokeColor=#d79b00;" vertex="1" parent="1">
          <mxGeometry x="2980" y="-420" width="310" height="50" as="geometry" />
        </mxCell>
        <mxCell id="gE25UW4fyhG3K7R1qF85-104" value="" style="endArrow=none;dashed=1;html=1;rounded=0;strokeWidth=3;" edge="1" parent="1">
          <mxGeometry width="50" height="50" relative="1" as="geometry">
            <mxPoint x="3140" y="-230" as="sourcePoint" />
            <mxPoint x="3140" y="-360" as="targetPoint" />
          </mxGeometry>
        </mxCell>
        <mxCell id="gE25UW4fyhG3K7R1qF85-105" value="&lt;font style=&quot;font-size: 20px;&quot; face=&quot;Comic Sans MS&quot;&gt;&lt;b style=&quot;&quot;&gt;Train&lt;/b&gt;&lt;/font&gt;" style="text;html=1;align=center;verticalAlign=middle;whiteSpace=wrap;rounded=0;" vertex="1" parent="1">
          <mxGeometry x="3020" y="-370" width="60" height="30" as="geometry" />
        </mxCell>
        <mxCell id="gE25UW4fyhG3K7R1qF85-106" value="&lt;font style=&quot;font-size: 20px;&quot; face=&quot;Comic Sans MS&quot;&gt;&lt;b style=&quot;&quot;&gt;Test&lt;/b&gt;&lt;/font&gt;" style="text;html=1;align=center;verticalAlign=middle;whiteSpace=wrap;rounded=0;" vertex="1" parent="1">
          <mxGeometry x="3200" y="-370" width="60" height="30" as="geometry" />
        </mxCell>
        <mxCell id="gE25UW4fyhG3K7R1qF85-107" value="" style="endArrow=classic;html=1;rounded=0;" edge="1" parent="1">
          <mxGeometry width="50" height="50" relative="1" as="geometry">
            <mxPoint x="3049.58" y="-340" as="sourcePoint" />
            <mxPoint x="3050" y="-310" as="targetPoint" />
          </mxGeometry>
        </mxCell>
        <mxCell id="gE25UW4fyhG3K7R1qF85-108" value="&lt;font style=&quot;color: rgb(255, 181, 112); font-size: 19px;&quot; face=&quot;Comic Sans MS&quot;&gt;&lt;b style=&quot;&quot;&gt;Cross Entropy Loss&lt;/b&gt;&lt;/font&gt;" style="text;html=1;align=center;verticalAlign=middle;whiteSpace=wrap;rounded=0;" vertex="1" parent="1">
          <mxGeometry x="2995" y="-290" width="110" height="30" as="geometry" />
        </mxCell>
        <mxCell id="gE25UW4fyhG3K7R1qF85-109" value="&lt;font style=&quot;color: rgb(255, 181, 112); font-size: 19px;&quot; face=&quot;Comic Sans MS&quot;&gt;&lt;b style=&quot;&quot;&gt;Constrained&lt;/b&gt;&lt;/font&gt;&lt;div&gt;&lt;font style=&quot;color: rgb(255, 181, 112); font-size: 19px;&quot; face=&quot;Comic Sans MS&quot;&gt;&lt;b style=&quot;&quot;&gt;Beam&lt;/b&gt;&lt;/font&gt;&lt;/div&gt;&lt;div&gt;&lt;font style=&quot;color: rgb(255, 181, 112); font-size: 19px;&quot; face=&quot;Comic Sans MS&quot;&gt;&lt;b style=&quot;&quot;&gt;Search&lt;/b&gt;&lt;/font&gt;&lt;/div&gt;" style="text;html=1;align=center;verticalAlign=middle;whiteSpace=wrap;rounded=0;" vertex="1" parent="1">
          <mxGeometry x="3175" y="-290" width="110" height="30" as="geometry" />
        </mxCell>
        <mxCell id="gE25UW4fyhG3K7R1qF85-110" value="" style="endArrow=classic;html=1;rounded=0;" edge="1" parent="1">
          <mxGeometry width="50" height="50" relative="1" as="geometry">
            <mxPoint x="3229.58" y="-340" as="sourcePoint" />
            <mxPoint x="3230" y="-310" as="targetPoint" />
          </mxGeometry>
        </mxCell>
        <mxCell id="gE25UW4fyhG3K7R1qF85-116" value="" style="group" vertex="1" connectable="0" parent="1">
          <mxGeometry x="2640" y="-350" width="110" height="60" as="geometry" />
        </mxCell>
        <mxCell id="gE25UW4fyhG3K7R1qF85-114" value="" style="group" vertex="1" connectable="0" parent="gE25UW4fyhG3K7R1qF85-116">
          <mxGeometry width="110" height="20" as="geometry" />
        </mxCell>
        <mxCell id="gE25UW4fyhG3K7R1qF85-111" value="9" style="rounded=0;whiteSpace=wrap;html=1;fillColor=#CFCFCF;" vertex="1" parent="gE25UW4fyhG3K7R1qF85-114">
          <mxGeometry width="30" height="20" as="geometry" />
        </mxCell>
        <mxCell id="gE25UW4fyhG3K7R1qF85-112" value="19" style="rounded=0;whiteSpace=wrap;html=1;fillColor=#CFCFCF;" vertex="1" parent="gE25UW4fyhG3K7R1qF85-114">
          <mxGeometry x="40" width="30" height="20" as="geometry" />
        </mxCell>
        <mxCell id="gE25UW4fyhG3K7R1qF85-113" value="76" style="rounded=0;whiteSpace=wrap;html=1;fillColor=#CFCFCF;" vertex="1" parent="gE25UW4fyhG3K7R1qF85-114">
          <mxGeometry x="80" width="30" height="20" as="geometry" />
        </mxCell>
        <mxCell id="gE25UW4fyhG3K7R1qF85-115" value="&lt;font style=&quot;font-size: 13px;&quot;&gt;Item 189&lt;/font&gt;" style="rounded=0;whiteSpace=wrap;html=1;fillColor=#ffcc99;strokeColor=#36393d;" vertex="1" parent="gE25UW4fyhG3K7R1qF85-116">
          <mxGeometry y="30" width="110" height="30" as="geometry" />
        </mxCell>
        <mxCell id="gE25UW4fyhG3K7R1qF85-117" value="" style="group" vertex="1" connectable="0" parent="1">
          <mxGeometry x="2780" y="-350" width="110" height="60" as="geometry" />
        </mxCell>
        <mxCell id="gE25UW4fyhG3K7R1qF85-118" value="" style="group" vertex="1" connectable="0" parent="gE25UW4fyhG3K7R1qF85-117">
          <mxGeometry width="110" height="20" as="geometry" />
        </mxCell>
        <mxCell id="gE25UW4fyhG3K7R1qF85-119" value="9" style="rounded=0;whiteSpace=wrap;html=1;fillColor=#CFCFCF;" vertex="1" parent="gE25UW4fyhG3K7R1qF85-118">
          <mxGeometry width="30" height="20" as="geometry" />
        </mxCell>
        <mxCell id="gE25UW4fyhG3K7R1qF85-120" value="19" style="rounded=0;whiteSpace=wrap;html=1;fillColor=#CFCFCF;" vertex="1" parent="gE25UW4fyhG3K7R1qF85-118">
          <mxGeometry x="40" width="30" height="20" as="geometry" />
        </mxCell>
        <mxCell id="gE25UW4fyhG3K7R1qF85-121" value="76" style="rounded=0;whiteSpace=wrap;html=1;fillColor=#CFCFCF;" vertex="1" parent="gE25UW4fyhG3K7R1qF85-118">
          <mxGeometry x="80" width="30" height="20" as="geometry" />
        </mxCell>
        <mxCell id="gE25UW4fyhG3K7R1qF85-122" value="&lt;font style=&quot;font-size: 13px;&quot;&gt;Item 189&lt;/font&gt;" style="rounded=0;whiteSpace=wrap;html=1;fillColor=#ffcc99;strokeColor=#36393d;" vertex="1" parent="gE25UW4fyhG3K7R1qF85-117">
          <mxGeometry y="30" width="110" height="30" as="geometry" />
        </mxCell>
        <mxCell id="gE25UW4fyhG3K7R1qF85-123" value="&lt;font style=&quot;font-size: 17px;&quot;&gt;&lt;b&gt;&lt;font style=&quot;&quot;&gt;Bidirectional Transformer Encode&lt;/font&gt;r&lt;/b&gt;&lt;/font&gt;" style="rounded=1;whiteSpace=wrap;html=1;fillColor=#ffe6cc;strokeColor=#d79b00;" vertex="1" parent="1">
          <mxGeometry x="2900" y="140" width="320" height="50" as="geometry" />
        </mxCell>
        <mxCell id="gE25UW4fyhG3K7R1qF85-124" value="" style="shape=flexArrow;endArrow=classic;html=1;rounded=0;strokeColor=light-dark(#050505, #232e40);fillColor=#D4E1F5;" edge="1" parent="1">
          <mxGeometry width="50" height="50" relative="1" as="geometry">
            <mxPoint x="3225" y="164.57999999999998" as="sourcePoint" />
            <mxPoint x="3275" y="164.57999999999998" as="targetPoint" />
          </mxGeometry>
        </mxCell>
        <mxCell id="gE25UW4fyhG3K7R1qF85-125" value="&lt;font style=&quot;font-size: 17px;&quot;&gt;&lt;b&gt;&lt;font style=&quot;&quot;&gt;Transformer Decode&lt;/font&gt;r&lt;/b&gt;&lt;/font&gt;" style="rounded=1;whiteSpace=wrap;html=1;fillColor=#ffe6cc;strokeColor=#d79b00;" vertex="1" parent="1">
          <mxGeometry x="3280" y="140" width="310" height="50" as="geometry" />
        </mxCell>
        <mxCell id="gE25UW4fyhG3K7R1qF85-126" value="" style="endArrow=none;dashed=1;html=1;rounded=0;strokeWidth=3;" edge="1" parent="1">
          <mxGeometry width="50" height="50" relative="1" as="geometry">
            <mxPoint x="3440" y="330" as="sourcePoint" />
            <mxPoint x="3440" y="200" as="targetPoint" />
          </mxGeometry>
        </mxCell>
        <mxCell id="gE25UW4fyhG3K7R1qF85-127" value="&lt;font style=&quot;font-size: 20px;&quot; face=&quot;Comic Sans MS&quot;&gt;&lt;b style=&quot;&quot;&gt;Train&lt;/b&gt;&lt;/font&gt;" style="text;html=1;align=center;verticalAlign=middle;whiteSpace=wrap;rounded=0;" vertex="1" parent="1">
          <mxGeometry x="3320" y="190" width="60" height="30" as="geometry" />
        </mxCell>
        <mxCell id="gE25UW4fyhG3K7R1qF85-128" value="&lt;font style=&quot;font-size: 20px;&quot; face=&quot;Comic Sans MS&quot;&gt;&lt;b style=&quot;&quot;&gt;Test&lt;/b&gt;&lt;/font&gt;" style="text;html=1;align=center;verticalAlign=middle;whiteSpace=wrap;rounded=0;" vertex="1" parent="1">
          <mxGeometry x="3500" y="190" width="60" height="30" as="geometry" />
        </mxCell>
        <mxCell id="gE25UW4fyhG3K7R1qF85-129" value="" style="endArrow=classic;html=1;rounded=0;" edge="1" parent="1">
          <mxGeometry width="50" height="50" relative="1" as="geometry">
            <mxPoint x="3349.58" y="220" as="sourcePoint" />
            <mxPoint x="3350" y="250" as="targetPoint" />
          </mxGeometry>
        </mxCell>
        <mxCell id="gE25UW4fyhG3K7R1qF85-130" value="&lt;font style=&quot;color: rgb(255, 181, 112); font-size: 19px;&quot; face=&quot;Comic Sans MS&quot;&gt;&lt;b style=&quot;&quot;&gt;Cross Entropy Loss&lt;/b&gt;&lt;/font&gt;" style="text;html=1;align=center;verticalAlign=middle;whiteSpace=wrap;rounded=0;" vertex="1" parent="1">
          <mxGeometry x="3295" y="270" width="110" height="30" as="geometry" />
        </mxCell>
        <mxCell id="gE25UW4fyhG3K7R1qF85-131" value="&lt;font style=&quot;color: rgb(255, 181, 112); font-size: 19px;&quot; face=&quot;Comic Sans MS&quot;&gt;&lt;b style=&quot;&quot;&gt;Constrained&lt;/b&gt;&lt;/font&gt;&lt;div&gt;&lt;font style=&quot;color: rgb(255, 181, 112); font-size: 19px;&quot; face=&quot;Comic Sans MS&quot;&gt;&lt;b style=&quot;&quot;&gt;Beam&lt;/b&gt;&lt;/font&gt;&lt;/div&gt;&lt;div&gt;&lt;font style=&quot;color: rgb(255, 181, 112); font-size: 19px;&quot; face=&quot;Comic Sans MS&quot;&gt;&lt;b style=&quot;&quot;&gt;Search&lt;/b&gt;&lt;/font&gt;&lt;/div&gt;" style="text;html=1;align=center;verticalAlign=middle;whiteSpace=wrap;rounded=0;" vertex="1" parent="1">
          <mxGeometry x="3475" y="270" width="110" height="30" as="geometry" />
        </mxCell>
        <mxCell id="gE25UW4fyhG3K7R1qF85-132" value="" style="endArrow=classic;html=1;rounded=0;" edge="1" parent="1">
          <mxGeometry width="50" height="50" relative="1" as="geometry">
            <mxPoint x="3529.58" y="220" as="sourcePoint" />
            <mxPoint x="3530" y="250" as="targetPoint" />
          </mxGeometry>
        </mxCell>
        <mxCell id="gE25UW4fyhG3K7R1qF85-133" value="" style="group" vertex="1" connectable="0" parent="1">
          <mxGeometry x="2920" y="280" width="110" height="60" as="geometry" />
        </mxCell>
        <mxCell id="gE25UW4fyhG3K7R1qF85-134" value="" style="group" vertex="1" connectable="0" parent="gE25UW4fyhG3K7R1qF85-133">
          <mxGeometry width="110" height="20" as="geometry" />
        </mxCell>
        <mxCell id="gE25UW4fyhG3K7R1qF85-135" value="9" style="rounded=0;whiteSpace=wrap;html=1;fillColor=#CFCFCF;" vertex="1" parent="gE25UW4fyhG3K7R1qF85-134">
          <mxGeometry width="30" height="20" as="geometry" />
        </mxCell>
        <mxCell id="gE25UW4fyhG3K7R1qF85-136" value="19" style="rounded=0;whiteSpace=wrap;html=1;fillColor=#CFCFCF;" vertex="1" parent="gE25UW4fyhG3K7R1qF85-134">
          <mxGeometry x="40" width="30" height="20" as="geometry" />
        </mxCell>
        <mxCell id="gE25UW4fyhG3K7R1qF85-137" value="76" style="rounded=0;whiteSpace=wrap;html=1;fillColor=#CFCFCF;" vertex="1" parent="gE25UW4fyhG3K7R1qF85-134">
          <mxGeometry x="80" width="30" height="20" as="geometry" />
        </mxCell>
        <mxCell id="gE25UW4fyhG3K7R1qF85-138" value="&lt;font style=&quot;font-size: 13px;&quot;&gt;Item 189&lt;/font&gt;" style="rounded=0;whiteSpace=wrap;html=1;fillColor=#ffcc99;strokeColor=#36393d;" vertex="1" parent="gE25UW4fyhG3K7R1qF85-133">
          <mxGeometry y="30" width="110" height="30" as="geometry" />
        </mxCell>
        <mxCell id="gE25UW4fyhG3K7R1qF85-139" value="" style="group" vertex="1" connectable="0" parent="1">
          <mxGeometry x="3100" y="280" width="110" height="60" as="geometry" />
        </mxCell>
        <mxCell id="gE25UW4fyhG3K7R1qF85-140" value="" style="group" vertex="1" connectable="0" parent="gE25UW4fyhG3K7R1qF85-139">
          <mxGeometry width="110" height="20" as="geometry" />
        </mxCell>
        <mxCell id="gE25UW4fyhG3K7R1qF85-141" value="9" style="rounded=0;whiteSpace=wrap;html=1;fillColor=#CFCFCF;" vertex="1" parent="gE25UW4fyhG3K7R1qF85-140">
          <mxGeometry width="30" height="20" as="geometry" />
        </mxCell>
        <mxCell id="gE25UW4fyhG3K7R1qF85-142" value="19" style="rounded=0;whiteSpace=wrap;html=1;fillColor=#CFCFCF;" vertex="1" parent="gE25UW4fyhG3K7R1qF85-140">
          <mxGeometry x="40" width="30" height="20" as="geometry" />
        </mxCell>
        <mxCell id="gE25UW4fyhG3K7R1qF85-143" value="76" style="rounded=0;whiteSpace=wrap;html=1;fillColor=#CFCFCF;" vertex="1" parent="gE25UW4fyhG3K7R1qF85-140">
          <mxGeometry x="80" width="30" height="20" as="geometry" />
        </mxCell>
        <mxCell id="gE25UW4fyhG3K7R1qF85-153" style="edgeStyle=orthogonalEdgeStyle;rounded=0;orthogonalLoop=1;jettySize=auto;html=1;exitX=0.5;exitY=1;exitDx=0;exitDy=0;dashed=1;" edge="1" parent="gE25UW4fyhG3K7R1qF85-139" source="gE25UW4fyhG3K7R1qF85-144">
          <mxGeometry relative="1" as="geometry">
            <mxPoint x="-460.00000000000045" as="targetPoint" />
          </mxGeometry>
        </mxCell>
        <mxCell id="gE25UW4fyhG3K7R1qF85-144" value="&lt;font style=&quot;font-size: 13px;&quot;&gt;Item 189&lt;/font&gt;" style="rounded=0;whiteSpace=wrap;html=1;fillColor=#ffcc99;strokeColor=#36393d;" vertex="1" parent="gE25UW4fyhG3K7R1qF85-139">
          <mxGeometry y="30" width="110" height="30" as="geometry" />
        </mxCell>
        <mxCell id="gE25UW4fyhG3K7R1qF85-148" style="edgeStyle=orthogonalEdgeStyle;rounded=0;orthogonalLoop=1;jettySize=auto;html=1;exitX=1;exitY=0.5;exitDx=0;exitDy=0;entryX=0;entryY=0.5;entryDx=0;entryDy=0;" edge="1" parent="1" target="gE25UW4fyhG3K7R1qF85-147">
          <mxGeometry relative="1" as="geometry">
            <mxPoint x="2690" y="260" as="sourcePoint" />
            <mxPoint x="2800" y="310" as="targetPoint" />
          </mxGeometry>
        </mxCell>
        <mxCell id="gE25UW4fyhG3K7R1qF85-161" style="edgeStyle=orthogonalEdgeStyle;rounded=0;orthogonalLoop=1;jettySize=auto;html=1;entryX=0;entryY=0.5;entryDx=0;entryDy=0;" edge="1" parent="1" source="gE25UW4fyhG3K7R1qF85-145" target="gE25UW4fyhG3K7R1qF85-155">
          <mxGeometry relative="1" as="geometry" />
        </mxCell>
        <mxCell id="gE25UW4fyhG3K7R1qF85-145" value="&lt;b&gt;&lt;font style=&quot;font-size: 19px;&quot;&gt;LLM Encoder&lt;/font&gt;&lt;/b&gt;" style="rounded=1;whiteSpace=wrap;html=1;fillColor=#dae8fc;strokeColor=#6c8ebf;" vertex="1" parent="1">
          <mxGeometry x="2580" y="210" width="120" height="60" as="geometry" />
        </mxCell>
        <mxCell id="gE25UW4fyhG3K7R1qF85-146" style="edgeStyle=orthogonalEdgeStyle;rounded=0;orthogonalLoop=1;jettySize=auto;html=1;entryX=0.5;entryY=1;entryDx=0;entryDy=0;" edge="1" parent="1" source="gE25UW4fyhG3K7R1qF85-138" target="gE25UW4fyhG3K7R1qF85-145">
          <mxGeometry relative="1" as="geometry" />
        </mxCell>
        <mxCell id="gE25UW4fyhG3K7R1qF85-151" style="edgeStyle=orthogonalEdgeStyle;rounded=0;orthogonalLoop=1;jettySize=auto;html=1;entryX=0;entryY=0.5;entryDx=0;entryDy=0;" edge="1" parent="1" source="gE25UW4fyhG3K7R1qF85-147" target="gE25UW4fyhG3K7R1qF85-135">
          <mxGeometry relative="1" as="geometry" />
        </mxCell>
        <mxCell id="gE25UW4fyhG3K7R1qF85-147" value="&lt;b&gt;&lt;font style=&quot;font-size: 20px;&quot;&gt;RQ-VAE&lt;/font&gt;&lt;/b&gt;" style="rounded=1;whiteSpace=wrap;html=1;fillColor=#e1d5e7;strokeColor=#9673a6;" vertex="1" parent="1">
          <mxGeometry x="2810" y="270" width="90" height="40" as="geometry" />
        </mxCell>
        <mxCell id="gE25UW4fyhG3K7R1qF85-162" style="edgeStyle=orthogonalEdgeStyle;rounded=0;orthogonalLoop=1;jettySize=auto;html=1;entryX=0;entryY=0.5;entryDx=0;entryDy=0;" edge="1" parent="1" source="gE25UW4fyhG3K7R1qF85-155" target="gE25UW4fyhG3K7R1qF85-156">
          <mxGeometry relative="1" as="geometry" />
        </mxCell>
        <mxCell id="gE25UW4fyhG3K7R1qF85-155" value="" style="shape=orEllipse;perimeter=ellipsePerimeter;whiteSpace=wrap;html=1;backgroundOutline=1;" vertex="1" parent="1">
          <mxGeometry x="2920" y="230" width="20" height="20" as="geometry" />
        </mxCell>
        <mxCell id="gE25UW4fyhG3K7R1qF85-163" style="edgeStyle=orthogonalEdgeStyle;rounded=0;orthogonalLoop=1;jettySize=auto;html=1;entryX=0;entryY=0.5;entryDx=0;entryDy=0;" edge="1" parent="1" source="gE25UW4fyhG3K7R1qF85-156" target="gE25UW4fyhG3K7R1qF85-157">
          <mxGeometry relative="1" as="geometry" />
        </mxCell>
        <mxCell id="gE25UW4fyhG3K7R1qF85-156" value="" style="shape=orEllipse;perimeter=ellipsePerimeter;whiteSpace=wrap;html=1;backgroundOutline=1;" vertex="1" parent="1">
          <mxGeometry x="2965" y="230" width="20" height="20" as="geometry" />
        </mxCell>
        <mxCell id="gE25UW4fyhG3K7R1qF85-164" style="edgeStyle=orthogonalEdgeStyle;rounded=0;orthogonalLoop=1;jettySize=auto;html=1;entryX=0;entryY=0.5;entryDx=0;entryDy=0;dashed=1;" edge="1" parent="1" source="gE25UW4fyhG3K7R1qF85-157" target="gE25UW4fyhG3K7R1qF85-158">
          <mxGeometry relative="1" as="geometry" />
        </mxCell>
        <mxCell id="gE25UW4fyhG3K7R1qF85-157" value="" style="shape=orEllipse;perimeter=ellipsePerimeter;whiteSpace=wrap;html=1;backgroundOutline=1;" vertex="1" parent="1">
          <mxGeometry x="3010" y="230" width="20" height="20" as="geometry" />
        </mxCell>
        <mxCell id="gE25UW4fyhG3K7R1qF85-166" style="edgeStyle=orthogonalEdgeStyle;rounded=0;orthogonalLoop=1;jettySize=auto;html=1;entryX=0;entryY=0.5;entryDx=0;entryDy=0;dashed=1;" edge="1" parent="1" source="gE25UW4fyhG3K7R1qF85-158" target="gE25UW4fyhG3K7R1qF85-159">
          <mxGeometry relative="1" as="geometry" />
        </mxCell>
        <mxCell id="gE25UW4fyhG3K7R1qF85-158" value="" style="shape=orEllipse;perimeter=ellipsePerimeter;whiteSpace=wrap;html=1;backgroundOutline=1;" vertex="1" parent="1">
          <mxGeometry x="3105" y="230" width="20" height="20" as="geometry" />
        </mxCell>
        <mxCell id="gE25UW4fyhG3K7R1qF85-168" style="edgeStyle=orthogonalEdgeStyle;rounded=0;orthogonalLoop=1;jettySize=auto;html=1;entryX=0;entryY=0.5;entryDx=0;entryDy=0;dashed=1;" edge="1" parent="1" source="gE25UW4fyhG3K7R1qF85-159" target="gE25UW4fyhG3K7R1qF85-160">
          <mxGeometry relative="1" as="geometry" />
        </mxCell>
        <mxCell id="gE25UW4fyhG3K7R1qF85-159" value="" style="shape=orEllipse;perimeter=ellipsePerimeter;whiteSpace=wrap;html=1;backgroundOutline=1;" vertex="1" parent="1">
          <mxGeometry x="3145" y="230" width="20" height="20" as="geometry" />
        </mxCell>
        <mxCell id="gE25UW4fyhG3K7R1qF85-160" value="" style="shape=orEllipse;perimeter=ellipsePerimeter;whiteSpace=wrap;html=1;backgroundOutline=1;" vertex="1" parent="1">
          <mxGeometry x="3190" y="230" width="20" height="20" as="geometry" />
        </mxCell>
        <mxCell id="gE25UW4fyhG3K7R1qF85-165" style="edgeStyle=orthogonalEdgeStyle;rounded=0;orthogonalLoop=1;jettySize=auto;html=1;entryX=0;entryY=0.5;entryDx=0;entryDy=0;dashed=1;" edge="1" parent="1" source="gE25UW4fyhG3K7R1qF85-137" target="gE25UW4fyhG3K7R1qF85-141">
          <mxGeometry relative="1" as="geometry" />
        </mxCell>
        <mxCell id="gE25UW4fyhG3K7R1qF85-169" style="edgeStyle=orthogonalEdgeStyle;rounded=0;orthogonalLoop=1;jettySize=auto;html=1;exitX=0.5;exitY=0;exitDx=0;exitDy=0;entryX=0.5;entryY=1;entryDx=0;entryDy=0;" edge="1" parent="1" source="gE25UW4fyhG3K7R1qF85-135" target="gE25UW4fyhG3K7R1qF85-155">
          <mxGeometry relative="1" as="geometry" />
        </mxCell>
        <mxCell id="gE25UW4fyhG3K7R1qF85-170" style="edgeStyle=orthogonalEdgeStyle;rounded=0;orthogonalLoop=1;jettySize=auto;html=1;exitX=0.5;exitY=0;exitDx=0;exitDy=0;entryX=0.096;entryY=1.007;entryDx=0;entryDy=0;entryPerimeter=0;" edge="1" parent="1" source="gE25UW4fyhG3K7R1qF85-155" target="gE25UW4fyhG3K7R1qF85-123">
          <mxGeometry relative="1" as="geometry" />
        </mxCell>
        <mxCell id="gE25UW4fyhG3K7R1qF85-171" style="edgeStyle=orthogonalEdgeStyle;rounded=0;orthogonalLoop=1;jettySize=auto;html=1;exitX=0.5;exitY=0;exitDx=0;exitDy=0;entryX=0.5;entryY=1;entryDx=0;entryDy=0;" edge="1" parent="1" source="gE25UW4fyhG3K7R1qF85-136" target="gE25UW4fyhG3K7R1qF85-156">
          <mxGeometry relative="1" as="geometry" />
        </mxCell>
        <mxCell id="gE25UW4fyhG3K7R1qF85-172" style="edgeStyle=orthogonalEdgeStyle;rounded=0;orthogonalLoop=1;jettySize=auto;html=1;entryX=0.234;entryY=1.02;entryDx=0;entryDy=0;entryPerimeter=0;" edge="1" parent="1" source="gE25UW4fyhG3K7R1qF85-156" target="gE25UW4fyhG3K7R1qF85-123">
          <mxGeometry relative="1" as="geometry" />
        </mxCell>
        <mxCell id="gE25UW4fyhG3K7R1qF85-173" style="edgeStyle=orthogonalEdgeStyle;rounded=0;orthogonalLoop=1;jettySize=auto;html=1;entryX=0.376;entryY=1.013;entryDx=0;entryDy=0;entryPerimeter=0;" edge="1" parent="1" source="gE25UW4fyhG3K7R1qF85-157" target="gE25UW4fyhG3K7R1qF85-123">
          <mxGeometry relative="1" as="geometry" />
        </mxCell>
        <mxCell id="gE25UW4fyhG3K7R1qF85-174" style="edgeStyle=orthogonalEdgeStyle;rounded=0;orthogonalLoop=1;jettySize=auto;html=1;exitX=0.75;exitY=0;exitDx=0;exitDy=0;entryX=0.5;entryY=1;entryDx=0;entryDy=0;" edge="1" parent="1" source="gE25UW4fyhG3K7R1qF85-137" target="gE25UW4fyhG3K7R1qF85-157">
          <mxGeometry relative="1" as="geometry" />
        </mxCell>
        <mxCell id="gE25UW4fyhG3K7R1qF85-175" style="edgeStyle=orthogonalEdgeStyle;rounded=0;orthogonalLoop=1;jettySize=auto;html=1;exitX=0.5;exitY=0;exitDx=0;exitDy=0;entryX=0.5;entryY=1;entryDx=0;entryDy=0;" edge="1" parent="1" source="gE25UW4fyhG3K7R1qF85-141" target="gE25UW4fyhG3K7R1qF85-158">
          <mxGeometry relative="1" as="geometry" />
        </mxCell>
        <mxCell id="gE25UW4fyhG3K7R1qF85-176" style="edgeStyle=orthogonalEdgeStyle;rounded=0;orthogonalLoop=1;jettySize=auto;html=1;exitX=0.5;exitY=0;exitDx=0;exitDy=0;entryX=0.5;entryY=1;entryDx=0;entryDy=0;" edge="1" parent="1" source="gE25UW4fyhG3K7R1qF85-142" target="gE25UW4fyhG3K7R1qF85-159">
          <mxGeometry relative="1" as="geometry" />
        </mxCell>
        <mxCell id="gE25UW4fyhG3K7R1qF85-177" style="edgeStyle=orthogonalEdgeStyle;rounded=0;orthogonalLoop=1;jettySize=auto;html=1;exitX=0.75;exitY=0;exitDx=0;exitDy=0;entryX=0.5;entryY=1;entryDx=0;entryDy=0;" edge="1" parent="1" source="gE25UW4fyhG3K7R1qF85-143" target="gE25UW4fyhG3K7R1qF85-160">
          <mxGeometry relative="1" as="geometry" />
        </mxCell>
        <mxCell id="gE25UW4fyhG3K7R1qF85-178" style="edgeStyle=orthogonalEdgeStyle;rounded=0;orthogonalLoop=1;jettySize=auto;html=1;exitX=0.5;exitY=0;exitDx=0;exitDy=0;entryX=0.673;entryY=1.02;entryDx=0;entryDy=0;entryPerimeter=0;" edge="1" parent="1" source="gE25UW4fyhG3K7R1qF85-158" target="gE25UW4fyhG3K7R1qF85-123">
          <mxGeometry relative="1" as="geometry" />
        </mxCell>
        <mxCell id="gE25UW4fyhG3K7R1qF85-179" style="edgeStyle=orthogonalEdgeStyle;rounded=0;orthogonalLoop=1;jettySize=auto;html=1;exitX=0.5;exitY=0;exitDx=0;exitDy=0;" edge="1" parent="1" source="gE25UW4fyhG3K7R1qF85-159">
          <mxGeometry relative="1" as="geometry">
            <mxPoint x="3155" y="192" as="targetPoint" />
          </mxGeometry>
        </mxCell>
        <mxCell id="gE25UW4fyhG3K7R1qF85-180" style="edgeStyle=orthogonalEdgeStyle;rounded=0;orthogonalLoop=1;jettySize=auto;html=1;entryX=0.938;entryY=1.033;entryDx=0;entryDy=0;entryPerimeter=0;" edge="1" parent="1" source="gE25UW4fyhG3K7R1qF85-160" target="gE25UW4fyhG3K7R1qF85-123">
          <mxGeometry relative="1" as="geometry" />
        </mxCell>
      </root>
    </mxGraphModel>
  </diagram>
</mxfile>
